<svg width="103" height="74" viewBox="0 0 103 74" fill="none" xmlns="http://www.w3.org/2000/svg">
<rect x="8" y="1" width="87" height="72" rx="9" stroke="url(#paint0_linear_806_2095)" stroke-width="2"/>
<path d="M42.7105 22.86H37.9705L37.2305 22.92L37.7305 22.46C39.3705 20.82 40.4105 19.74 40.8105 19.2C41.2105 18.66 41.5305 18.18 41.7305 17.78C41.9305 17.38 42.0705 17 42.1505 16.64C42.2305 16.28 42.2705 15.98 42.2705 15.7C42.2705 14.92 42.1105 14.24 41.7905 13.68C41.4705 13.12 40.9905 12.68 40.3505 12.34C39.7105 12.02 38.9505 11.84 38.0305 11.84C37.5905 11.84 37.1105 11.92 36.5705 12.04C36.0105 12.18 35.4705 12.42 34.9505 12.74C34.4305 13.06 33.9905 13.42 33.6705 13.82C33.9505 14.56 34.4305 15.04 35.1105 15.28C35.6305 14.76 36.0905 14.42 36.5105 14.24C36.9305 14.06 37.3905 13.96 37.8705 13.96C38.1905 13.96 38.4905 14.02 38.8105 14.14C39.1305 14.26 39.3705 14.5 39.5705 14.82C39.7505 15.14 39.8505 15.54 39.8505 15.98C39.8505 16.38 39.7105 16.8 39.4705 17.24C39.2305 17.68 38.8105 18.22 38.2305 18.9C37.6305 19.58 36.4905 20.8 34.7905 22.56C34.5105 22.84 34.2905 23.14 34.1705 23.44C34.0505 23.74 33.9905 24.02 33.9905 24.28C33.9905 24.54 34.0105 24.78 34.0905 25H42.7105C42.8105 24.66 42.8705 24.32 42.8705 23.96C42.8705 23.58 42.8105 23.22 42.7105 22.86ZM54.2423 20.88C54.2423 20.6 54.2023 20.28 54.1423 19.9H52.7223V17.08C52.3423 17.02 51.9823 16.98 51.6623 16.98C51.3423 16.98 50.9623 17.02 50.5423 17.08V19.9H47.3223C47.3223 19.72 47.4223 19.38 47.6223 18.9L50.5023 12.32C49.8023 11.96 49.1023 11.76 48.3823 11.68L45.2623 18.72C45.0623 19.22 44.9223 19.66 44.8423 20.06C44.7623 20.46 44.7623 20.8 44.8223 21.12C44.8823 21.44 44.9823 21.7 45.1223 21.92H50.5423V25C50.8623 25.06 51.2423 25.08 51.6623 25.08C52.0623 25.08 52.4023 25.06 52.7223 25V21.92H54.1223C54.2023 21.58 54.2423 21.24 54.2423 20.88ZM60.6742 25.32C61.4342 25.32 62.1342 25.16 62.7542 24.84C63.3542 24.52 63.8742 24.08 64.2742 23.48C64.6742 22.88 64.9742 22.18 65.1742 21.34C65.3742 20.5 65.4942 19.58 65.4942 18.58C65.4942 17.58 65.3942 16.68 65.1942 15.84C64.9942 15 64.6942 14.3 64.2942 13.7C63.8942 13.1 63.3742 12.64 62.7742 12.32C62.1542 12 61.4542 11.84 60.6742 11.84C59.8942 11.84 59.1942 12 58.5942 12.32C57.9742 12.64 57.4542 13.08 57.0542 13.68C56.6542 14.28 56.3342 14.98 56.1342 15.82C55.9342 16.66 55.8342 17.58 55.8342 18.58C55.8342 19.58 55.9342 20.5 56.1342 21.34C56.3342 22.18 56.6342 22.88 57.0342 23.48C57.4342 24.08 57.9542 24.52 58.5742 24.84C59.1742 25.16 59.8742 25.32 60.6742 25.32ZM60.6742 23.34C59.0942 23.34 58.3142 21.76 58.3142 18.58C58.3142 15.46 59.0942 13.88 60.6742 13.88C62.2342 13.88 63.0142 15.46 63.0142 18.58C63.0142 21.76 62.2342 23.34 60.6742 23.34ZM44.3173 34.06C43.9573 34.06 43.5773 34.1 43.1773 34.18V39.44H37.1173V34.18C36.7973 34.1 36.4173 34.06 35.9373 34.06C35.4973 34.06 35.1373 34.1 34.8573 34.18V47C35.2573 47.08 35.6173 47.12 35.9773 47.12C36.3573 47.12 36.7373 47.08 37.1173 47V41.52H43.1773V47C43.5973 47.08 43.9973 47.12 44.3773 47.12C44.7373 47.12 45.0973 47.08 45.4573 47V34.18C45.0773 34.1 44.6973 34.06 44.3173 34.06ZM55.3069 41.78C56.0669 41.46 56.6669 40.96 57.1269 40.28C57.5669 39.62 57.8069 38.84 57.8069 37.92C57.8069 37.16 57.6469 36.54 57.3669 36.02C57.0869 35.5 56.7069 35.1 56.2269 34.78C55.7469 34.48 55.2069 34.26 54.5869 34.14C53.9669 34.02 53.3469 33.94 52.7069 33.94C52.0669 33.94 51.3469 33.98 50.5869 34.06C49.8069 34.14 49.1469 34.24 48.6069 34.36V47C49.0069 47.08 49.3869 47.12 49.7469 47.12C50.1269 47.12 50.5069 47.08 50.8869 47V42.24C51.3069 42.28 51.9269 42.28 52.7669 42.28H53.0669L55.9269 47.04C56.0469 47.08 56.2869 47.08 56.6469 47.08C57.3669 47.08 57.9669 47.02 58.4469 46.88L55.3069 41.78ZM50.8869 40.3V36C51.5669 35.94 52.2069 35.9 52.8069 35.9C53.7269 35.9 54.4069 36.1 54.8469 36.48C55.2869 36.88 55.5069 37.4 55.5069 38.04C55.5069 38.74 55.2869 39.3 54.8469 39.72C54.4069 40.14 53.7269 40.34 52.8269 40.34C51.9669 40.34 51.3269 40.34 50.8869 40.3ZM64.1819 47.32C64.9019 47.32 65.5419 47.24 66.1419 47.06C66.7219 46.88 67.2219 46.62 67.6419 46.26C68.0619 45.9 68.3819 45.48 68.6019 44.96C68.8019 44.44 68.9219 43.88 68.9219 43.24C68.9219 42.68 68.8219 42.18 68.6219 41.74C68.4219 41.3 68.1419 40.94 67.7819 40.62C67.4219 40.32 66.9819 40.06 66.4819 39.84C65.9819 39.62 65.4019 39.42 64.7619 39.26C63.8219 39.04 63.1619 38.8 62.7619 38.54C62.3619 38.3 62.1619 37.92 62.1619 37.42C62.1619 37 62.3619 36.64 62.7619 36.36C63.1619 36.08 63.6819 35.92 64.3619 35.92C65.5619 35.92 66.6619 36.28 67.6219 36.96C67.9019 36.8 68.1619 36.54 68.3619 36.18C68.5619 35.82 68.6819 35.48 68.7219 35.12C67.6219 34.28 66.2019 33.84 64.4419 33.84C63.0819 33.84 62.0019 34.2 61.1819 34.88C60.3419 35.58 59.9419 36.48 59.9419 37.58C59.9419 38.62 60.2619 39.44 60.8819 40.04C61.5019 40.66 62.5019 41.12 63.9019 41.44C64.8619 41.68 65.5819 41.96 66.0219 42.26C66.4619 42.56 66.6819 42.96 66.6819 43.48C66.6819 44 66.4619 44.42 66.0419 44.74C65.6219 45.06 65.0019 45.22 64.2019 45.22C63.8619 45.22 63.4819 45.18 63.0619 45.1C62.6419 45.02 62.2219 44.88 61.8219 44.68C61.4019 44.48 61.0419 44.22 60.7419 43.94C60.3619 44.18 60.0819 44.46 59.9019 44.78C59.7219 45.12 59.6019 45.44 59.5619 45.72C59.8819 46.04 60.2819 46.32 60.7819 46.58C61.2619 46.84 61.8019 47.02 62.4019 47.14C63.0019 47.26 63.5819 47.32 64.1819 47.32Z" fill="#0074BD"/>
<path d="M22.6303 52.858C21.6923 52.858 20.8103 52.928 19.9983 53.054V61.972C20.7403 62.084 21.6503 62.14 22.7143 62.14C23.4563 62.14 24.1423 62.028 24.7723 61.804C25.4023 61.58 25.9343 61.272 26.3823 60.852C26.8162 60.432 27.1523 59.928 27.3903 59.34C27.6283 58.752 27.7543 58.122 27.7543 57.422C27.7543 56.75 27.6423 56.134 27.4183 55.574C27.1943 55.014 26.8583 54.524 26.4243 54.118C25.9762 53.726 25.4443 53.418 24.8003 53.194C24.1563 52.97 23.4283 52.858 22.6303 52.858ZM22.7983 60.684C22.3503 60.684 21.9583 60.67 21.5943 60.642V54.384C21.8603 54.356 22.2243 54.342 22.6723 54.342C23.7643 54.342 24.5903 54.636 25.1643 55.196C25.7383 55.756 26.0323 56.512 26.0323 57.464C26.0323 58.444 25.7383 59.228 25.1783 59.816C24.6183 60.404 23.8203 60.684 22.7983 60.684ZM32.675 62.238C33.207 62.238 33.711 62.154 34.173 61.986C34.621 61.818 35.013 61.58 35.349 61.244C35.685 60.922 35.937 60.516 36.119 60.04C36.287 59.564 36.385 59.018 36.385 58.416V53.026C36.119 52.97 35.853 52.942 35.601 52.942C35.349 52.942 35.083 52.97 34.817 53.026V58.43C34.817 59.144 34.621 59.704 34.257 60.124C33.893 60.544 33.361 60.74 32.689 60.74C32.269 60.74 31.905 60.656 31.597 60.488C31.289 60.32 31.037 60.068 30.841 59.732C30.645 59.396 30.561 58.962 30.561 58.43V53.026C30.281 52.97 30.001 52.942 29.749 52.942C29.483 52.942 29.217 52.97 28.951 53.026V58.444C28.951 59.06 29.035 59.592 29.217 60.068C29.385 60.544 29.637 60.95 29.973 61.272C30.309 61.594 30.701 61.832 31.163 62C31.611 62.168 32.115 62.238 32.675 62.238ZM43.1453 58.346C43.6773 58.122 44.0973 57.772 44.4193 57.296C44.7273 56.834 44.8953 56.288 44.8953 55.644C44.8953 55.112 44.7833 54.678 44.5873 54.314C44.3913 53.95 44.1253 53.67 43.7893 53.446C43.4533 53.236 43.0753 53.082 42.6413 52.998C42.2073 52.914 41.7733 52.858 41.3253 52.858C40.8773 52.858 40.3733 52.886 39.8413 52.942C39.2953 52.998 38.8333 53.068 38.4553 53.152V62C38.7353 62.056 39.0013 62.084 39.2533 62.084C39.5193 62.084 39.7853 62.056 40.0513 62V58.668C40.3453 58.696 40.7793 58.696 41.3673 58.696H41.5773L43.5793 62.028C43.6633 62.056 43.8313 62.056 44.0833 62.056C44.5873 62.056 45.0073 62.014 45.3433 61.916L43.1453 58.346ZM40.0513 57.31V54.3C40.5273 54.258 40.9753 54.23 41.3953 54.23C42.0393 54.23 42.5153 54.37 42.8233 54.636C43.1313 54.916 43.2853 55.28 43.2853 55.728C43.2853 56.218 43.1313 56.61 42.8233 56.904C42.5153 57.198 42.0393 57.338 41.4093 57.338C40.8073 57.338 40.3593 57.338 40.0513 57.31ZM50.6077 53.012C50.3837 52.956 50.1177 52.928 49.8097 52.928C49.4737 52.928 49.1937 52.956 48.9837 53.012L45.6377 61.902C45.8617 62.014 46.1557 62.056 46.5197 62.056C46.7717 62.056 47.0097 62.042 47.2337 62L48.0037 59.844H51.5317L52.3297 62C52.4977 62.042 52.7217 62.056 52.9877 62.056C53.3657 62.056 53.7017 62.014 53.9817 61.902L50.6077 53.012ZM48.4937 58.5L49.5017 55.7L49.7537 54.874L50.0057 55.7L51.0417 58.5H48.4937ZM60.3412 53.726C60.3412 53.488 60.3132 53.25 60.2572 53.012H53.2292C53.1732 53.25 53.1452 53.488 53.1452 53.726C53.1452 53.964 53.1732 54.202 53.2292 54.44H55.9592V62.014C56.3092 62.07 56.5752 62.098 56.7432 62.098C56.9112 62.098 57.1772 62.07 57.5412 62.014V54.44H60.2572C60.3132 54.188 60.3412 53.95 60.3412 53.726ZM62.4688 62.084C62.7208 62.084 62.9868 62.056 63.2388 62V53.026C62.9868 52.97 62.7208 52.928 62.4408 52.928C62.1608 52.928 61.9088 52.97 61.6568 53.026V62C61.9368 62.056 62.2028 62.084 62.4688 62.084ZM69.3258 62.224C69.6338 62.224 69.9838 62.196 70.3758 62.112C70.7678 62.028 71.1738 61.888 71.5658 61.664C71.9578 61.454 72.3078 61.188 72.6158 60.866C72.9238 60.558 73.1758 60.194 73.3858 59.788C73.5818 59.382 73.7218 58.976 73.8058 58.57C73.8758 58.178 73.9178 57.814 73.9178 57.492C73.9178 56.82 73.8058 56.176 73.5818 55.588C73.3578 55 73.0358 54.496 72.6158 54.076C72.1958 53.656 71.7058 53.32 71.1458 53.096C70.5858 52.872 69.9698 52.746 69.3258 52.746C68.6818 52.746 68.0658 52.872 67.5058 53.11C66.9318 53.348 66.4418 53.684 66.0218 54.104C65.6018 54.538 65.2938 55.042 65.0698 55.63C64.8458 56.218 64.7338 56.834 64.7338 57.492C64.7338 58.164 64.8458 58.794 65.0698 59.382C65.2938 59.97 65.6018 60.474 66.0218 60.894C66.4418 61.314 66.9318 61.65 67.4918 61.874C68.0518 62.112 68.6678 62.224 69.3258 62.224ZM69.3258 60.74C68.8918 60.74 68.4998 60.67 68.1498 60.502C67.7858 60.348 67.4778 60.124 67.2258 59.83C66.9738 59.55 66.7778 59.2 66.6378 58.794C66.4978 58.402 66.4418 57.968 66.4418 57.492C66.4418 56.512 66.6938 55.728 67.2258 55.126C67.7578 54.538 68.4578 54.23 69.3258 54.23C70.1938 54.23 70.8798 54.538 71.4118 55.126C71.9438 55.728 72.2098 56.512 72.2098 57.492C72.2098 57.968 72.1398 58.402 71.9998 58.794C71.8598 59.2 71.6638 59.55 71.4118 59.83C71.1598 60.124 70.8518 60.348 70.5018 60.502C70.1378 60.67 69.7458 60.74 69.3258 60.74ZM82.2104 52.942C81.9864 52.942 81.7344 52.97 81.4404 53.026V58.752L81.4684 59.382L81.2164 58.934L77.0724 52.97C76.8484 52.942 76.5964 52.928 76.3164 52.956C76.0224 52.984 75.7844 53.04 75.5884 53.11V62C75.8824 62.056 76.1344 62.084 76.3584 62.084C76.5964 62.084 76.8624 62.056 77.1424 62V56.176L77.1144 55.616L77.3664 56.092L81.5244 62.056C82.0844 62.084 82.5744 62.042 82.9944 61.93V53.026C82.7284 52.97 82.4624 52.942 82.2104 52.942Z" fill="#EA2D2E"/>
<defs>
<linearGradient id="paint0_linear_806_2095" x1="9.5" y1="3" x2="91" y2="74" gradientUnits="userSpaceOnUse">
<stop stop-color="#EA2D2E"/>
<stop offset="1" stop-color="#0074BD"/>
</linearGradient>
</defs>
</svg>
