<svg width="102" height="189" viewBox="0 0 102 189" fill="none" xmlns="http://www.w3.org/2000/svg">
<path d="M33.5747 100.192C33.5747 100.192 28.6273 103.071 37.1015 104.044C47.3669 105.216 52.6141 105.047 63.9251 102.91C63.9251 102.91 66.9065 104.773 71.0585 106.388C45.6947 117.255 13.6539 105.758 33.5747 100.192ZM30.4728 86.0078C30.4728 86.0078 24.9227 90.1191 33.403 90.9959C44.3704 92.1273 53.0284 92.2207 68.0214 89.3342C68.0214 89.3342 70.0898 91.4373 73.3484 92.5838C42.6877 101.554 8.53628 93.2903 30.4728 86.0078Z" fill="#0074BD"/>
<path d="M56.6015 61.9465C62.8551 69.1446 54.9624 75.6167 54.9624 75.6167C54.9624 75.6167 70.8306 67.4257 63.5436 57.1648C56.7356 47.5999 51.5185 42.8498 79.7704 26.4648C79.7704 26.4648 35.4213 37.5378 56.6015 61.9465Z" fill="#EA2D2E"/>
<path d="M90.1424 110.68C90.1424 110.68 93.8062 113.7 86.1079 116.035C71.4705 120.469 25.1781 121.807 12.3199 116.212C7.70089 114.2 16.3679 111.41 19.0932 110.824C21.936 110.208 23.5601 110.321 23.5601 110.321C18.4198 106.701 -9.66631 117.43 9.29479 120.508C61.0047 128.889 103.553 116.733 90.1424 110.68ZM35.9527 71.3081C35.9527 71.3081 12.4073 76.9019 27.6156 78.9357C34.0394 79.7944 46.8358 79.597 58.7645 78.5967C68.5102 77.7786 78.2906 76.0296 78.2906 76.0296C78.2906 76.0296 74.8572 77.503 72.3699 79.1993C48.4554 85.489 2.26686 82.5588 15.5649 76.129C26.8081 70.6889 35.9527 71.3081 35.9527 71.3081ZM78.1926 94.9154C102.5 82.2877 91.2602 70.1511 83.4157 71.7857C81.4979 72.1864 80.6362 72.5329 80.6362 72.5329C80.6362 72.5329 81.3518 71.4121 82.7122 70.9315C98.2324 65.4779 110.166 87.0227 77.7075 95.5556C77.7075 95.5556 78.0796 95.2182 78.1926 94.9154Z" fill="#0074BD"/>
<path d="M63.5389 0C63.5389 0 76.9997 13.4668 50.7696 34.171C29.7355 50.7834 45.9728 60.2534 50.7605 71.0778C38.4824 59.9988 29.4764 50.2456 35.5175 41.1703C44.3895 27.8496 68.9684 21.3881 63.5389 0Z" fill="#EA2D2E"/>
<path d="M38.3476 129.148C61.6746 130.639 97.5072 128.318 98.3554 117.279C98.3554 117.279 96.7253 121.463 79.0734 124.783C59.1602 128.532 34.5963 128.096 20.0312 125.692C20.0312 125.692 23.0142 128.162 38.3476 129.148Z" fill="#0074BD"/>
<path d="M97.2762 148.947H96.5651V148.55H98.4784V148.947H97.7703V150.931H97.2747L97.2762 148.947ZM101.095 149.047H101.086L100.381 150.931H100.056L99.3552 149.047H99.3477V150.931H98.8776V148.55H99.5661L100.215 150.235L100.866 148.55H101.55V150.931H101.095V149.047ZM34.522 171.328C32.3225 173.236 29.9964 174.308 27.9068 174.308C24.933 174.308 23.3195 172.521 23.3195 169.661C23.3195 166.565 25.0459 164.297 31.9639 164.297H34.5205L34.522 171.328ZM40.5948 178.18V156.973C40.5948 151.551 37.5019 147.974 30.0536 147.974C25.7058 147.974 21.8943 149.05 18.7954 150.418L19.6872 154.174C22.1278 153.277 25.284 152.446 28.3814 152.446C32.675 152.446 34.5205 154.174 34.5205 157.75V160.43H32.3752C21.9485 160.43 17.2437 164.475 17.2437 170.558C17.2437 175.8 20.3441 178.778 26.1819 178.778C29.9331 178.778 32.7368 177.229 35.3536 174.962L35.8296 178.181L40.5948 178.18ZM60.8605 178.18H53.2872L44.1713 148.518H50.7864L56.4449 166.745L57.7029 172.222C60.5592 164.3 62.584 156.259 63.5964 148.52H70.0307C68.3088 158.283 65.2053 169.005 60.8605 178.18ZM89.9184 171.328C87.7113 173.236 85.3837 174.308 83.3017 174.308C80.3248 174.308 78.7128 172.521 78.7128 169.661C78.7128 166.565 80.4438 164.297 87.3542 164.297H89.9168L89.9184 171.328ZM95.9942 178.18V156.973C95.9942 151.551 92.8922 147.974 85.45 147.974C81.0977 147.974 77.2877 149.05 74.1887 150.418L75.0821 154.174C77.5227 153.277 80.6834 152.446 83.7808 152.446C88.0683 152.446 89.9184 154.174 89.9184 157.75V160.43H87.7731C77.3434 160.43 72.64 164.475 72.64 170.558C72.64 175.8 75.7374 178.778 81.5737 178.778C85.3265 178.778 88.1256 177.229 90.7499 174.962L91.229 178.181L95.9942 178.18ZM10.5848 183.221C8.85685 185.75 6.05773 187.752 2.99648 188.881L0 185.348C2.33059 184.152 4.32674 182.222 5.25626 180.423C6.05773 178.822 6.39067 176.762 6.39067 171.835V137.965H12.8446V171.369C12.8446 177.96 12.3203 180.625 10.5848 183.221Z" fill="#EA2D2E"/>
</svg>
