<svg xmlns="http://www.w3.org/2000/svg" xmlns:xlink="http://www.w3.org/1999/xlink" viewBox="0,0,256,256" width="100px" height="100px" fill-rule="nonzero"><g fill="#ffffff" fill-rule="nonzero" stroke="none" stroke-width="1" stroke-linecap="butt" stroke-linejoin="miter" stroke-miterlimit="10" stroke-dasharray="" stroke-dashoffset="0" font-family="none" font-weight="none" font-size="none" text-anchor="none" style="mix-blend-mode: normal"><g transform="scale(2.56,2.56)"><path d="M30.96094,17.6543c-7.168,0 -13,5.832 -13,13v39c0,7.168 5.832,13 13,13h39c7.168,0 13,-5.832 13,-13v-39c0,-7.169 -5.832,-13 -13,-13zM30.96094,19.6543h39c6.065,0 11,4.935 11,11v39c0,6.065 -4.935,11 -11,11h-39c-6.065,0 -11,-4.935 -11,-11v-39c0,-6.065 4.935,-11 11,-11zM33.79883,22.65234c-5.976,0 -10.83789,4.86189 -10.83789,10.83789v33.32617c0,5.976 4.86189,10.83594 10.83789,10.83594h33.32422c5.976,0 10.83789,-4.85994 10.83789,-10.83594v-18.66211c0,-0.277 -0.224,-0.5 -0.5,-0.5c-0.276,0 -0.5,0.224 -0.5,0.5v18.66211c0,5.424 -4.41389,9.83789 -9.83789,9.83789h-33.32422c-5.424,0 -9.83789,-4.41389 -9.83789,-9.83789v-33.32617c0,-5.424 4.41389,-9.83789 9.83789,-9.83789h33.66211c0.276,0 0.5,-0.224 0.5,-0.5c0,-0.276 -0.224,-0.5 -0.5,-0.5zM50,34.69531c-3.979,0 -4.46444,0.01084 -6.02344,0.08984c-1.459,0.063 -2.59845,0.27913 -3.68945,0.70313c-1.085,0.418 -1.93014,0.96734 -2.74414,1.77734c-0.815,0.81 -1.36806,1.65152 -1.78906,2.72852c-0.426,1.084 -0.64498,2.21436 -0.70898,3.69336c-0.067,1.526 -0.08984,2.03998 -0.08984,5.95898c0,3.955 0.0128,4.43833 0.0918,5.98633c0.063,1.451 0.28103,2.58297 0.70703,3.66797c0.421,1.078 0.97406,1.91852 1.78906,2.72852c0.814,0.81 1.65914,1.35834 2.74414,1.77734c1.09,0.423 2.2297,0.64008 3.7207,0.70508c1.535,0.066 2.05119,0.08789 5.99219,0.08789c3.979,0 4.46544,-0.01084 6.02344,-0.08984c1.459,-0.063 2.5965,-0.27912 3.6875,-0.70312c1.084,-0.418 1.93109,-0.96734 2.74609,-1.77734c0.815,-0.81 1.36611,-1.65152 1.78711,-2.72852c0.426,-1.084 0.64498,-2.21545 0.70898,-3.68945c0.067,-1.526 0.0918,-2.03989 0.0918,-5.96289c0,-3.956 -0.0118,-4.43933 -0.0918,-5.98633c-0.063,-1.452 -0.28298,-2.58297 -0.70898,-3.66797c-0.421,-1.078 -0.97211,-1.92047 -1.78711,-2.73047c-0.815,-0.81 -1.66014,-1.35639 -2.74414,-1.77539c-1.09,-0.423 -2.2297,-0.64008 -3.7207,-0.70508c-1.535,-0.066 -2.05119,-0.08789 -5.99219,-0.08789zM50.00195,35.69531c3.919,0 4.43147,0.02089 5.98047,0.08789c1.347,0.059 2.38609,0.25667 3.37109,0.63867c0.949,0.366 1.68939,0.84378 2.40039,1.55078c0.712,0.708 1.1945,1.44277 1.5625,2.38477v0.00195c0.384,0.978 0.58067,2.00766 0.63867,3.34766c0.079,1.528 0.0918,2.00845 0.0918,5.93945c-0.001,3.903 -0.0248,4.41136 -0.0918,5.94336c-0.059,1.337 -0.25563,2.36966 -0.64062,3.34766c-0.368,0.941 -0.8495,1.67677 -1.5625,2.38477c-0.711,0.707 -1.45234,1.18478 -2.40234,1.55078c-0.986,0.382 -2.02405,0.58067 -3.37305,0.63867c-1.539,0.078 -2.02156,0.08789 -5.97656,0.08789c-3.92,0 -4.43247,-0.02089 -5.98047,-0.08789c-1.347,-0.059 -2.38609,-0.25667 -3.37109,-0.63867c-0.95,-0.367 -1.68939,-0.84378 -2.40039,-1.55078c-0.712,-0.708 -1.1935,-1.44372 -1.5625,-2.38672c-0.384,-0.979 -0.58067,-2.00961 -0.63867,-3.34961c-0.078,-1.529 -0.08984,-2.00845 -0.08984,-5.93945c0,-3.898 0.02284,-4.40541 0.08984,-5.94141c0.059,-1.337 0.25563,-2.37066 0.64063,-3.34766c0.368,-0.942 0.84855,-1.67777 1.56055,-2.38477c0.711,-0.707 1.45234,-1.18478 2.40234,-1.55078c0.986,-0.382 2.026,-0.58067 3.375,-0.63867c1.54,-0.078 2.02156,-0.08789 5.97656,-0.08789zM77.46094,37.6543c-0.276,0 -0.5,0.223 -0.5,0.5v2c0,0.276 0.224,0.5 0.5,0.5c0.276,0 0.5,-0.224 0.5,-0.5v-2c0,-0.276 -0.224,-0.5 -0.5,-0.5zM58.0293,39.19531c-1.236,0 -2.24219,1.00047 -2.24219,2.23047c0,1.23 1.00619,2.23047 2.24219,2.23047c1.236,0 2.24219,-1.00047 2.24219,-2.23047c0.001,-1.23 -1.00519,-2.23047 -2.24219,-2.23047zM58.0293,40.19531c0.685,0 1.24219,0.55147 1.24219,1.23047c0.001,0.679 -0.55619,1.23047 -1.24219,1.23047c-0.685,0 -1.24219,-0.55147 -1.24219,-1.23047c0,-0.679 0.55719,-1.23047 1.24219,-1.23047zM77.46094,41.6543c-0.276,0 -0.5,0.224 -0.5,0.5v4c0,0.276 0.224,0.5 0.5,0.5c0.276,0 0.5,-0.224 0.5,-0.5v-4c0,-0.277 -0.224,-0.5 -0.5,-0.5zM49.98828,41.7207c-4.397,0 -7.97461,3.55478 -7.97461,7.92578c0,4.371 3.57761,7.92773 7.97461,7.92773c4.397,0 7.97461,-3.55673 7.97461,-7.92773c0,-4.37 -3.57761,-7.92578 -7.97461,-7.92578zM49.98828,42.7207c3.846,0 6.97461,3.10578 6.97461,6.92578c0,3.82 -3.12861,6.92773 -6.97461,6.92773c-3.846,0 -6.97461,-3.10773 -6.97461,-6.92773c0,-3.819 3.12861,-6.92578 6.97461,-6.92578z"></path></g></g></svg>