<svg id="Layer_1" data-name="Layer 1" xmlns="http://www.w3.org/2000/svg" viewBox="0 0 1093.07 270.69"><defs><style>.cls-1{fill:#00a88e;fill-rule:evenodd;}.cls-17,.cls-2,.cls-5{fill:#6d6e71;}.cls-3{fill:#010101;}.cls-4{fill:#f26522;}.cls-5{font-size:85px;font-family:MyriadPro-Regular, Myriad Pro;letter-spacing:0.02em;}.cls-6{letter-spacing:0.02em;}.cls-7{letter-spacing:0.02em;}.cls-8{letter-spacing:0.02em;}.cls-9{letter-spacing:-0.05em;}.cls-10{letter-spacing:-0.06em;}.cls-11{letter-spacing:-0.07em;}.cls-12{letter-spacing:-0.06em;}.cls-13{letter-spacing:0.13em;}.cls-14{letter-spacing:0.15em;}.cls-15{letter-spacing:0.12em;}.cls-16{fill:none;stroke:#0bab92;stroke-miterlimit:10;stroke-width:7px;}.cls-17{font-size:31.12px;font-family:Arial-BoldMT, Arial;font-weight:700;letter-spacing:0.02em;}</style></defs><path class="cls-1" d="M161.35,262.35a40.49,40.49,0,0,1-14.06,0V211.42c2.72-.93,10.33-1,14-.1V224.4a86.56,86.56,0,0,1,9.13-.42c4.92.27,9.35,1.92,12.41,6.11a11.65,11.65,0,0,1,2.44,6.79c.09,8.27,0,16.54.06,24.81,0,.22-.07.41-.15,1H171.3v-2.08q0-9.22,0-18.43c0-2.09-.21-4.17-2.33-5.16a8.06,8.06,0,0,0-7.08.41c-.37.16-.52,1.1-.53,1.69,0,7.08,0,14.15,0,21.22Z" transform="translate(-28.7 -32.2)"/><path class="cls-1" d="M458.28,260.93C451,250.4,447,238.63,444.85,226.17c3.27-1.22,10.89-1.63,15.63-.82a108.09,108.09,0,0,0,6.27,25.72c1.15-4.53,2.39-8.65,3.2-12.85s1.18-8.58,1.75-12.92a37.36,37.36,0,0,1,14.62.76c-.64,4-1.12,8-1.92,11.88a66.14,66.14,0,0,1-11.62,26.6,57,57,0,0,1-15.51,14.26,2.19,2.19,0,0,1-2.64,0,14.54,14.54,0,0,1-6.32-8.39c-.12-.39.33-1.15.74-1.49,2.76-2.36,5.59-4.63,8.38-7A6.83,6.83,0,0,0,458.28,260.93Z" transform="translate(-28.7 -32.2)"/><path class="cls-1" d="M255.42,264c-6.59-.31-12.5-2-16.84-7.29-3.34-4.07-4.36-8.9-4.12-14,.59-12.37,9.78-18.69,20.17-18.85,6-.09,11.52,1.19,16,5.45,4.09,3.87,5.53,8.83,5.7,14.25.28,9.28-5.06,16.72-13.91,19.26A58.8,58.8,0,0,1,255.42,264Zm6.78-20.1c-.05-.75-.06-1.52-.14-2.27-.41-3.6-2.74-6.07-5.91-6.31-3.74-.29-6.38,1.51-7.18,5.31a16.58,16.58,0,0,0-.11,6c.68,3.84,3.15,5.76,6.75,5.69,3.39-.05,5.72-2.19,6.4-6A24.17,24.17,0,0,0,262.2,243.93Z" transform="translate(-28.7 -32.2)"/><path class="cls-1" d="M343.8,240.46c.16-2.83-1-4.28-3.65-4.8a17.59,17.59,0,0,0-11.75,2.12c-.38.2-.74.46-1.16.7A11.73,11.73,0,0,1,321.8,231a1.73,1.73,0,0,1,.82-2.14,26.43,26.43,0,0,1,11.26-4.39,28.09,28.09,0,0,1,14.59,1.27c6,2.35,8.95,7.1,9.2,13.35.26,6.62.11,13.26.07,19.9a1.83,1.83,0,0,1-.89,1.4c-8.46,3-17.12,4.43-26.05,2.71-4.65-.89-8.56-3.05-9.93-8-2-7.37,2-13.27,9.89-14.79A34.49,34.49,0,0,1,343.8,240.46Zm.1,7.51c-2.39,0-4.64-.13-6.87.05a2.58,2.58,0,0,0-2.57,2.64,3.16,3.16,0,0,0,2.28,3.34,10.49,10.49,0,0,0,6.39.07,1.34,1.34,0,0,0,.74-1C344,251.46,343.9,249.85,343.9,248Z" transform="translate(-28.7 -32.2)"/><path class="cls-1" d="M205.58,262.64H191.53v-2.47c0-9.45,0-18.9,0-28.37a3,3,0,0,1,1.58-2.89,32.48,32.48,0,0,1,18.71-5,23.52,23.52,0,0,1,9.65,1.91c5.42,2.48,8,7,8.19,12.66.28,7.92.08,15.88.08,23.93a40.62,40.62,0,0,1-14,0v-2.48c0-5.81,0-11.64,0-17.46,0-2.13-.31-4.25-2.44-5.32a7.76,7.76,0,0,0-7,.2c-.37.17-.58,1.07-.58,1.64,0,7.17,0,14.36,0,21.53Z" transform="translate(-28.7 -32.2)"/><path class="cls-1" d="M418.92,247.19c.6,4.86,3.93,5.88,8.63,5.65a19.08,19.08,0,0,0,9-3.05,1.44,1.44,0,0,1,2.2.32,14.25,14.25,0,0,1,3.42,7.76,2,2,0,0,1-.9,1.44c-6.12,4.11-13,5-20.08,4.24a18.62,18.62,0,0,1-11.31-5.22c-3.84-3.78-5.28-8.54-5.35-13.73-.15-9.49,5-17.52,14.55-19.8,7-1.68,13.74-.93,19.22,4.44a14.9,14.9,0,0,1,4.3,9.77c.14,2.11,0,4.23,0,6.35,0,1.32-.44,1.88-1.91,1.87-6.64-.1-13.27,0-19.91,0Zm10.74-7.35c.11-3.94-2.53-5.28-4.87-5.45-3.15-.24-5.35,1.81-5.9,5.45Z" transform="translate(-28.7 -32.2)"/><path class="cls-1" d="M81,247.19c.47,4.87,4.07,5.92,8.72,5.64a19.1,19.1,0,0,0,8.83-3,1.54,1.54,0,0,1,2.33.37,14.31,14.31,0,0,1,3.33,7.63,1.89,1.89,0,0,1-.83,1.46c-6.17,4.17-13.06,5.08-20.24,4.26a18.54,18.54,0,0,1-11-5c-4-3.83-5.45-8.68-5.51-14-.11-9.56,5.17-17.44,14.49-19.68,7.1-1.71,13.85-.94,19.35,4.51a14.75,14.75,0,0,1,4.21,9.47c.18,2.21,0,4.45,0,6.68,0,1.26-.48,1.77-1.86,1.76C95.6,247.15,88.37,247.19,81,247.19Zm10.7-7.32a4.9,4.9,0,0,0-5.15-5.48,5.34,5.34,0,0,0-5.51,5.48Z" transform="translate(-28.7 -32.2)"/><path class="cls-1" d="M277.73,226a49.45,49.45,0,0,1,14.1-.89c1.09.12,1.38.58,1.59,1.57,1.64,7.83,3.34,15.66,5,23.49a5.54,5.54,0,0,0,.55.89l5.58-25.78a40.27,40.27,0,0,1,14.67.75c-.8,3.26-1.55,6.45-2.37,9.62a90.82,90.82,0,0,1-10.5,25.59,2.45,2.45,0,0,1-2.12,1.46c-3.85,0-7.69.06-11.54-.06a2.93,2.93,0,0,1-1.87-1.26c-6.05-8.79-9.6-18.61-11.81-29C278.61,230.28,278.2,228.23,277.73,226Z" transform="translate(-28.7 -32.2)"/><path class="cls-1" d="M143.15,259.07c-5.23,4.39-11.21,5.27-17.57,4.49-4.57-.57-8.74-2.15-12-5.61-3.88-4.15-5.1-9.29-4.85-14.73.53-11.79,8.19-19.09,20-19.35A23.51,23.51,0,0,1,141.35,227c.82.48,1.21,1,.86,1.95a16.31,16.31,0,0,1-6.2,8.32c-2.33-.75-4.16-1.66-6.07-1.86-3.06-.34-5.45,1.45-6.45,4.4a11.8,11.8,0,0,0,.13,8.28c1.7,4.44,7.59,5.76,11.61,2.53a1.56,1.56,0,0,1,2.24-.06A14.44,14.44,0,0,1,143.15,259.07Z" transform="translate(-28.7 -32.2)"/><path class="cls-1" d="M377.91,262.67H363.77V211h14.14Z" transform="translate(-28.7 -32.2)"/><path class="cls-1" d="M385,211.23a45.29,45.29,0,0,1,14.09,0v51.16a41.15,41.15,0,0,1-14.09,0Z" transform="translate(-28.7 -32.2)"/><path class="cls-1" d="M29.18,221.86h6.27V211.33a43.68,43.68,0,0,1,14.25,0v10.55h1c3.51,0,7,0,10.55,0,.62,0,.86.13,1,.86a32.6,32.6,0,0,1,0,11.06c-.1.63-.39.65-.84.65-3.54,0-7.09,0-10.63,0h-.92a4.62,4.62,0,0,0-.07.57c0,3.56,0,7.13.07,10.68s2.3,4.28,4.75,4.24a6.09,6.09,0,0,0,4.16-2.08A11.45,11.45,0,0,1,62.38,252a15.1,15.1,0,0,1,2,5.6,1.31,1.31,0,0,1-.36,1,18.7,18.7,0,0,1-10.81,4.14,23.74,23.74,0,0,1-8.55-.87c-6.17-1.94-9.19-6.26-9.21-13.15,0-4.42,0-8.84,0-13.26v-1H29.2A40.45,40.45,0,0,1,29.18,221.86Z" transform="translate(-28.7 -32.2)"/><path class="cls-2" d="M76.08,300.5l1.56-1.85a6.76,6.76,0,0,0,4.64,1.91c1.6,0,2.61-.74,2.61-1.85v0c0-1.05-.59-1.62-3.32-2.25-3.13-.76-4.9-1.68-4.9-4.39v0c0-2.52,2.1-4.27,5-4.27A8.13,8.13,0,0,1,87,289.57l-1.39,1.95a6.7,6.7,0,0,0-4-1.51c-1.51,0-2.39.78-2.39,1.75v0c0,1.13.67,1.64,3.48,2.31,3.11.76,4.73,1.87,4.73,4.31v0c0,2.75-2.16,4.39-5.25,4.39A9.1,9.1,0,0,1,76.08,300.5Z" transform="translate(-28.7 -32.2)"/><path class="cls-2" d="M94.07,295.33v0a7.69,7.69,0,0,1,15.38-.05v.05a7.54,7.54,0,0,1-7.71,7.6A7.46,7.46,0,0,1,94.07,295.33Zm12.67,0v0a5,5,0,0,0-5-5.24,5,5,0,0,0-5,5.19v.05a5,5,0,0,0,5,5.23A5,5,0,0,0,106.74,295.33Z" transform="translate(-28.7 -32.2)"/><path class="cls-2" d="M116.78,287.93h10.94v2.36h-8.36v4h7.42v2.35h-7.42v6h-2.58Z" transform="translate(-28.7 -32.2)"/><path class="cls-2" d="M138.37,290.33h-4.66v-2.4h11.93v2.4H141v12.31h-2.61Z" transform="translate(-28.7 -32.2)"/><path class="cls-2" d="M151.44,287.93h2.79l3.51,10.91,3.62-10.95h2.18l3.62,10.95,3.51-10.91h2.71l-5.13,14.82H166l-3.61-10.57-3.62,10.57h-2.22Z" transform="translate(-28.7 -32.2)"/><path class="cls-2" d="M183.54,287.83h2.4l6.47,14.81h-2.73l-1.49-3.55h-7l-1.51,3.55h-2.65Zm3.7,9-2.54-5.89-2.52,5.89Z" transform="translate(-28.7 -32.2)"/><path class="cls-2" d="M199.13,287.93h6.56a6,6,0,0,1,4.24,1.47,4.44,4.44,0,0,1,1.22,3.18v0a4.41,4.41,0,0,1-3.51,4.45l4,5.57h-3.05L205,297.51h-3.24v5.13h-2.58Zm6.37,7.29c1.85,0,3-1,3-2.46v0c0-1.57-1.13-2.43-3-2.43h-3.77v4.93Z" transform="translate(-28.7 -32.2)"/><path class="cls-2" d="M218.52,287.93h10.91v2.31h-8.32v3.83h7.37v2.31h-7.37v3.95h8.42v2.31h-11Z" transform="translate(-28.7 -32.2)"/><path class="cls-2" d="M246.65,295.33v0a7.44,7.44,0,0,1,7.59-7.61A7.62,7.62,0,0,1,260,290l-1.66,1.91a5.83,5.83,0,0,0-4.11-1.83,4.94,4.94,0,0,0-4.86,5.19v.05a5,5,0,0,0,4.86,5.23,5.79,5.79,0,0,0,4.22-1.91l1.66,1.68a7.63,7.63,0,0,1-6,2.6A7.4,7.4,0,0,1,246.65,295.33Z" transform="translate(-28.7 -32.2)"/><path class="cls-2" d="M265.94,295.33v0a7.69,7.69,0,0,1,15.38-.05v.05a7.54,7.54,0,0,1-7.71,7.6A7.46,7.46,0,0,1,265.94,295.33Zm12.67,0v0a5,5,0,0,0-5-5.24,5,5,0,0,0-5,5.19v.05a5,5,0,0,0,5,5.23A5,5,0,0,0,278.61,295.33Z" transform="translate(-28.7 -32.2)"/><path class="cls-2" d="M288.65,287.93H291l7.88,10.17V287.93h2.54v14.71H299.3l-8.11-10.46v10.46h-2.54Z" transform="translate(-28.7 -32.2)"/><path class="cls-2" d="M308.46,300.5l1.55-1.85a6.78,6.78,0,0,0,4.65,1.91c1.59,0,2.6-.74,2.6-1.85v0c0-1.05-.59-1.62-3.32-2.25-3.13-.76-4.89-1.68-4.89-4.39v0c0-2.52,2.1-4.27,5-4.27a8.17,8.17,0,0,1,5.34,1.85L318,291.52a6.72,6.72,0,0,0-4-1.51c-1.52,0-2.4.78-2.4,1.75v0c0,1.13.67,1.64,3.49,2.31,3.11.76,4.73,1.87,4.73,4.31v0c0,2.75-2.17,4.39-5.26,4.39A9.08,9.08,0,0,1,308.46,300.5Z" transform="translate(-28.7 -32.2)"/><path class="cls-2" d="M326.86,296.4v-8.47h2.59v8.36c0,2.74,1.4,4.21,3.72,4.21s3.69-1.39,3.69-4.1v-8.47h2.59v8.34c0,4.39-2.48,6.6-6.33,6.6S326.86,300.66,326.86,296.4Z" transform="translate(-28.7 -32.2)"/><path class="cls-2" d="M347.2,287.93h2.58v12.36h7.74v2.35H347.2Z" transform="translate(-28.7 -32.2)"/><path class="cls-2" d="M365.92,290.33h-4.67v-2.4h11.94v2.4h-4.67v12.31h-2.6Z" transform="translate(-28.7 -32.2)"/><path class="cls-2" d="M380.27,287.93h2.58v14.71h-2.58Z" transform="translate(-28.7 -32.2)"/><path class="cls-2" d="M391,287.93h2.4l7.88,10.17V287.93h2.54v14.71h-2.17l-8.11-10.46v10.46H391Z" transform="translate(-28.7 -32.2)"/><path class="cls-2" d="M411.13,295.33v0a7.49,7.49,0,0,1,7.58-7.61,7.93,7.93,0,0,1,5.66,2l-1.64,1.95a5.76,5.76,0,0,0-4.12-1.58,5,5,0,0,0-4.77,5.19v.05a4.91,4.91,0,0,0,5,5.25,5.94,5.94,0,0,0,3.55-1.12v-2.75h-3.76v-2.25h6.26v6.18a9.37,9.37,0,0,1-6.13,2.29A7.3,7.3,0,0,1,411.13,295.33Z" transform="translate(-28.7 -32.2)"/><polygon class="cls-3" points="373.02 139.62 448.92 98.17 426.15 78.66 396.98 92.66 381.66 112.45 376.38 124.6 374.4 132.26 373.02 139.62"/><path class="cls-4" d="M534.5,76.73c-18.33,6-36.81,12.74-55.73,19.76-20.14,7.54-52,24.68-56.77,29-5.48,5.48-13.88,14.67-18.32,34.61a117.25,117.25,0,0,0-2,11.77s7.76-46.28,39.84-50.29c12.09-1.51,24.55,1.35,38.57,10.72C488.62,122.15,514.26,92.42,534.5,76.73Z" transform="translate(-28.7 -32.2)"/><path class="cls-4" d="M605.69,57.19a606.63,606.63,0,0,0-60.5,16.07c-19.82,11.46-52.41,49.05-62.38,60.85,8.65,6.2,17.91,14.84,28.05,26.44A184.66,184.66,0,0,1,522.81,177c5.56-10.27,18-32.59,32.57-55.61C575.4,89.86,592.25,68.37,605.69,57.19Z" transform="translate(-28.7 -32.2)"/><path class="cls-4" d="M613.32,55.54c-30.83,19.94-77.75,104.64-88.54,124.62,11.66,19.13,24.52,49,30.09,97.28C589,140,638,87.14,652.17,67.38q8.43-10.63,17.77-21,1.65-1.83,3.25-3.55Z" transform="translate(-28.7 -32.2)"/><text id="advanced_education_services" data-name="advanced education services" class="cls-5" transform="translate(726.63 71.15)">ad<tspan class="cls-6" x="92.65" y="0">v</tspan><tspan class="cls-7" x="135.06" y="0">an</tspan><tspan class="cls-8" x="226.95" y="0">c</tspan><tspan x="266.39" y="0">ed</tspan><tspan class="cls-9"><tspan x="0" y="87.3">k</tspan><tspan class="cls-10" x="36.04" y="87.3">n</tspan><tspan class="cls-11" x="77.94" y="87.3">o</tspan><tspan class="cls-12" x="118.74" y="87.3">wledge</tspan></tspan><tspan class="cls-13"><tspan x="0" y="174.6">se</tspan><tspan class="cls-14" x="97.66" y="174.6">r</tspan><tspan x="138.29" y="174.6">vi</tspan><tspan class="cls-15" x="220.49" y="174.6">c</tspan><tspan x="268.77" y="174.6">es</tspan></tspan></text><line class="cls-16" x1="687.3" y1="10.66" x2="687.3" y2="246.67"/><text id="advanced_education_services-2" data-name="advanced education services" class="cls-17" transform="translate(621.58 62.13) scale(0.98 1)">®</text></svg>